:FULLY-SPECIFIED
:FORCE-ALL-JOINTS-BE-3DOF
:DEGREES
194
root 8.1354 16.6407 -10.2503 6.99765 4.05259 -2.85682
lfemur -38.9749 6.01678 -19.7627
ltibia 44.9402 -0 0
lfoot -15.0827 9.91867 -0.000717846
ltoes -12.1756 0 0
rfemur -9.88821 5.37759 28.861
rtibia 24.0771 -0 0
rfoot -20.7529 1.67398 0.00129177
rtoes -9.63339 0 0
lowerback -4.21703 1.57694 0.952627
upperback -1.34347 2.02663 3.33725
thorax 0.895052 1.01977 2.99448
lowerneck -13.9648 -6.76982 -15.5624
upperneck 13.3123 -8.72427 16.1646
head 7.83825 -3.66421 7.00562
lclavicle 1.65447e-14 2.39867e-14 0
lhumerus -48.9198 -9.81533 95.6782
lradius 30.849 -0 0
lwrist 14.0352 0 0
lhand -12.7269 -24.6707 0.000102954
lfingers 7.12502 0 0
lthumb 13.3564 4.88122 9.85412e-05
rclavicle 1.65447e-14 2.39867e-14 0
rhumerus -36.3281 8.47178 -78.1587
rradius 48.0488 -0 0
rwrist -24.6175 0 0
rhand -34.1621 -28.1208 -0.00104699
rfingers 7.12502 0 0
rthumb -7.33606 -57.9735 -0.00101606
195
root 8.14159 16.6356 -10.1186 6.97216 3.92019 -2.96425
lfemur -39.2717 5.69148 -19.6068
ltibia 43.057 -0 0
lfoot -15.0202 9.65545 -0.00114856
ltoes -12.378 0 0
rfemur -8.95341 5.40007 29.0258
rtibia 23.2986 -0 0
rfoot -20.6086 1.87917 0.00206685
rtoes -8.94077 0 0
lowerback -4.33055 1.54933 0.973503
upperback -1.10977 1.97698 3.34345
thorax 1.20162 0.99245 2.99508
lowerneck -14.8278 -6.79692 -15.1699
upperneck 13.6179 -8.70914 15.88
head 8.05769 -3.6205 6.83473
lclavicle 1.08503e-14 2.33241e-14 0
lhumerus -48.5734 -9.74032 95.5458
lradius 30.5117 -0 0
lwrist 13.5114 0 0
lhand -12.71 -24.5311 0.000164726
lfingers 7.12502 0 0
lthumb 13.3727 5.01977 0.000157666
rclavicle 1.08503e-14 2.33241e-14 0
rhumerus -35.7722 8.65844 -78.3764
rradius 48.4199 -0 0
rwrist -24.8192 0 0
rhand -34.0993 -28.5029 -0.00167521
rfingers 7.12502 0 0
rthumb -7.27544 -58.3577 -0.00162571
196
root 8.14779 16.6306 -9.98691 6.94692 3.78773 -3.0716
lfemur -39.5692 5.36698 -19.4493
ltibia 41.1738 -0 0
lfoot -14.9577 9.39222 -0.00129213
ltoes -12.5804 0 0
rfemur -8.01852 5.41988 29.1911
rtibia 22.5202 -0 0
rfoot -20.4644 2.08436 0.00232521
rtoes -8.24816 0 0
lowerback -4.44407 1.52177 0.994433
upperback -0.876072 1.9273 3.34945
thorax 1.50818 0.965126 2.99555
lowerneck -15.691 -6.81814 -14.7771
upperneck 13.9235 -8.69252 15.5955
head 8.27699 -3.57614 6.66403
lclavicle 5.15595e-15 2.26614e-14 0
lhumerus -48.2272 -9.66452 95.4138
lradius 30.1745 -0 0
lwrist 12.9877 0 0
lhand -12.6931 -24.3914 0.000185317
lfingers 7.12502 0 0
lthumb 13.389 5.15833 0.000177374
rclavicle 5.15595e-15 2.26614e-14 0
rhumerus -35.2166 8.84717 -78.5923
rradius 48.7909 -0 0
rwrist -25.021 0 0
rhand -34.0365 -28.885 -0.00188461
rfingers 7.12502 0 0
rthumb -7.21482 -58.7418 -0.00182893
197
root 8.15398 16.6256 -9.85522 6.92194 3.65523 -3.17887
lfemur -39.8674 5.0433 -19.2902
ltibia 39.2907 -0 0
lfoot -14.8952 9.12899 -0.00114856
ltoes -12.7827 0 0
rfemur -7.08355 5.43699 29.3566
rtibia 21.7417 -0 0
rfoot -20.3201 2.28955 0.00206685
rtoes -7.55554 0 0
lowerback -4.5576 1.49425 1.01542
upperback -0.642391 1.87761 3.35525
thorax 1.81474 0.937799 2.99586
lowerneck -16.5544 -6.83349 -14.3839
upperneck 14.2289 -8.67439 15.3111
head 8.49615 -3.53112 6.4935
lclavicle -5.384e-16 2.19988e-14 0
lhumerus -47.8814 -9.58793 95.2824
lradius 29.8373 -0 0
lwrist 12.4639 0 0
lhand -12.6762 -24.2518 0.000164726
lfingers 7.12502 0 0
lthumb 13.4053 5.29688 0.000157666
rclavicle -5.384e-16 2.19988e-14 0
rhumerus -34.6616 9.03797 -78.8065
rradius 49.1619 -0 0
rwrist -25.2227 0 0
rhand -33.9737 -29.267 -0.00167521
rfingers 7.12502 0 0
rthumb -7.1542 -59.126 -0.00162571
